<svg width="36" height="36" viewBox="0 0 36 36" fill="none" xmlns="http://www.w3.org/2000/svg">
<g filter="url(#filter0_bi_12_4635)">
<rect x="1" y="1" width="34.1053" height="34.1053" rx="17.0526" fill="url(#paint0_radial_12_4635)"/>
<path d="M11.0165 18.9054C9.25798 16.5606 9.84416 13.0435 12.7751 11.8712C15.706 10.6988 17.4646 13.0435 18.0507 14.2159C18.6369 13.0435 20.9817 10.6988 23.9126 11.8712C26.8435 13.0435 26.8435 16.5606 25.0849 18.9054C23.3264 21.2501 18.0507 25.9396 18.0507 25.9396C18.0507 25.9396 12.7751 21.2501 11.0165 18.9054Z" stroke="white" stroke-width="1.17237" stroke-linecap="round" stroke-linejoin="round"/>
<rect x="0.587595" y="0.587595" width="34.9301" height="34.9301" rx="17.465" stroke="url(#paint1_linear_12_4635)" stroke-opacity="0.4" stroke-width="0.82481"/>
</g>
<defs>
<filter id="filter0_bi_12_4635" x="-8.35102" y="-8.35114" width="52.8075" height="52.8075" filterUnits="userSpaceOnUse" color-interpolation-filters="sRGB">
<feFlood flood-opacity="0" result="BackgroundImageFix"/>
<feGaussianBlur in="BackgroundImageFix" stdDeviation="4.26316"/>
<feComposite in2="SourceAlpha" operator="in" result="effect1_backgroundBlur_12_4635"/>
<feBlend mode="normal" in="SourceGraphic" in2="effect1_backgroundBlur_12_4635" result="shape"/>
<feColorMatrix in="SourceAlpha" type="matrix" values="0 0 0 0 0 0 0 0 0 0 0 0 0 0 0 0 0 0 127 0" result="hardAlpha"/>
<feOffset dx="-2.06203" dy="-2.06203"/>
<feGaussianBlur stdDeviation="51.5507"/>
<feComposite in2="hardAlpha" operator="arithmetic" k2="-1" k3="1"/>
<feColorMatrix type="matrix" values="0 0 0 0 1 0 0 0 0 1 0 0 0 0 1 0 0 0 0.02 0"/>
<feBlend mode="normal" in2="shape" result="effect2_innerShadow_12_4635"/>
</filter>
<radialGradient id="paint0_radial_12_4635" cx="0" cy="0" r="1" gradientUnits="userSpaceOnUse" gradientTransform="translate(1 1) rotate(45) scale(48.2321 33.5136)">
<stop stop-color="white" stop-opacity="0.4"/>
<stop offset="1" stop-color="white" stop-opacity="0"/>
</radialGradient>
<linearGradient id="paint1_linear_12_4635" x1="1" y1="1" x2="8.27108" y2="38.9442" gradientUnits="userSpaceOnUse">
<stop stop-color="#0FF7F0"/>
<stop offset="1" stop-color="#D686FF"/>
</linearGradient>
</defs>
</svg>
