<svg width="42" height="42" viewBox="0 0 42 42" fill="none" xmlns="http://www.w3.org/2000/svg">
<g filter="url(#filter0_bi_12_4646)">
<rect width="42" height="42" rx="21" fill="url(#paint0_radial_12_4646)"/>
<path d="M23.5334 21.1386L26.5089 18.1631L16.8982 12.7616C16.2612 12.4174 15.6645 12.3691 15.1413 12.7455L23.5334 21.1386ZM27.016 24.6222L30.1092 22.8824C30.713 22.5443 31.044 22.0653 31.044 21.534C31.044 21.0037 30.713 20.5238 30.1102 20.1857L27.3099 18.6129L24.1573 21.7645L27.016 24.6222ZM14.6241 13.477C14.5597 13.6752 14.5234 13.8966 14.5234 14.1391V28.936C14.5234 29.3194 14.608 29.6494 14.7609 29.9121L22.9085 21.7635L14.6241 13.477ZM23.5334 22.3873L15.4311 30.4907C15.586 30.55 15.7531 30.5812 15.9292 30.5812C16.2431 30.5812 16.5701 30.4887 16.9032 30.3035L26.2161 25.074L23.5334 22.3873Z" fill="white"/>
</g>
<defs>
<filter id="filter0_bi_12_4646" x="-10.5" y="-10.5" width="63" height="63" filterUnits="userSpaceOnUse" color-interpolation-filters="sRGB">
<feFlood flood-opacity="0" result="BackgroundImageFix"/>
<feGaussianBlur in="BackgroundImageFix" stdDeviation="5.25"/>
<feComposite in2="SourceAlpha" operator="in" result="effect1_backgroundBlur_12_4646"/>
<feBlend mode="normal" in="SourceGraphic" in2="effect1_backgroundBlur_12_4646" result="shape"/>
<feColorMatrix in="SourceAlpha" type="matrix" values="0 0 0 0 0 0 0 0 0 0 0 0 0 0 0 0 0 0 127 0" result="hardAlpha"/>
<feOffset dx="-2.53935" dy="-2.53935"/>
<feGaussianBlur stdDeviation="63.4837"/>
<feComposite in2="hardAlpha" operator="arithmetic" k2="-1" k3="1"/>
<feColorMatrix type="matrix" values="0 0 0 0 1 0 0 0 0 1 0 0 0 0 1 0 0 0 0.02 0"/>
<feBlend mode="normal" in2="shape" result="effect2_innerShadow_12_4646"/>
</filter>
<radialGradient id="paint0_radial_12_4646" cx="0" cy="0" r="1" gradientUnits="userSpaceOnUse" gradientTransform="rotate(45) scale(59.397 41.2713)">
<stop stop-color="#0CF9F0"/>
<stop offset="1" stop-color="#D686FF"/>
</radialGradient>
</defs>
</svg>
