<svg width="18" height="18" viewBox="0 0 18 18" fill="none" xmlns="http://www.w3.org/2000/svg">
<path d="M17.0597 17.3659C16.9684 17.3661 16.8779 17.3481 16.7935 17.313C16.7092 17.2779 16.6326 17.2265 16.5683 17.1616L0.728272 1.22714C0.598741 1.09681 0.52629 0.920354 0.526859 0.736601C0.527427 0.552848 0.600968 0.376846 0.731303 0.247315C0.861638 0.117784 1.03809 0.0453334 1.22184 0.0459018C1.4056 0.0464701 1.5816 0.120011 1.71113 0.250346L17.5507 16.1839C17.6475 16.2809 17.7133 16.4044 17.7399 16.5388C17.7665 16.6731 17.7526 16.8124 17.7 16.9389C17.6475 17.0654 17.5586 17.1735 17.4446 17.2495C17.3307 17.3255 17.1967 17.366 17.0597 17.3659Z" fill="white"/>
</svg>
